# xmcd CD database file
#
# Track frame offsets:
#	150
#	8342
#	18202
#	31236
#	54718
#	81801
#	84200
#	99659
#	106798
#	110019
#	131325
#	144448
#	156691
#	165206
#	171436
#	185625
#	209918
#
# Disc length: 3263 seconds
#
# Revision: 1
# Processed by: cddbd v1.5.2PL0 Copyright (c) Steve Scherf et al.
# Submitted via: CDex 1.51
#
DISCID=d80cbd11
DTITLE=Iñaki Salvador - Novecento (El Pianista del Océano) 
DYEAR=2002
DGENRE=Jazz
TTITLE0=Obertura
TTITLE1=¡América!
TTITLE2=¡Me habían contratado!
TTITLE3=Mejor antes (duo)
TTITLE4=Y ahora no tengas miedo
TTITLE5=Ya tenemos músicos
TTITLE6=El piano mágico de Danny Boodman T.D. Lemon mil novecientos
TTITLE7=Con las piernas colgando
TTITLE8=El mismo blues que acababa de escuchar
TTITLE9=Ojalá ahí arriba haya un piano (duo)
TTITLE10=Emigrantes
TTITLE11=Llegó el momento de mi solo
TTITLE12=Mejor antes
TTITLE13=Tú te lo has buscado pianista de mierda
TTITLE14=Ojalá ahí arriba haya un piano
TTITLE15=Como tú quieras
TTITLE16=Fantasía sobre Mediterráneo y Txoria Txori  
EXTD=YEAR: 2002
EXTT0=
EXTT1=
EXTT2=
EXTT3=
EXTT4=
EXTT5=
EXTT6=
EXTT7=
EXTT8=
EXTT9=
EXTT10=
EXTT11=
EXTT12=
EXTT13=
EXTT14=
EXTT15=
EXTT16=
PLAYORDER=
